<svg xmlns="http://www.w3.org/2000/svg" width="264.17" height="204.208" viewBox="0 0 69.895 54.03"><path d="M300.015 87.987c-1.728 0-10.415-5.015-11.28-6.512-.864-1.497-.864-11.528 0-13.025.865-1.497 9.552-6.513 11.28-6.513 1.729 0 10.416 5.016 11.28 6.513.864 1.497.864 11.528 0 13.025-.864 1.497-9.551 6.512-11.28 6.512z" style="baseline-shift:baseline;display:inline;overflow:visible;vector-effect:none;fill:#d7cc84;fill-opacity:1;stroke-width:.924292;stroke-linejoin:round;stroke-miterlimit:1.7;paint-order:fill markers stroke;enable-background:accumulate;stop-color:#000" transform="matrix(-1.08191 0 0 1.08191 381.58 -67.01)"/><path d="M300.015 87.987c-1.728 0-10.415-5.015-11.28-6.512-.864-1.497-.864-11.528 0-13.025.865-1.497 9.552-6.513 11.28-6.513 1.729 0 10.416 5.016 11.28 6.513.864 1.497.864 11.528 0 13.025-.864 1.497-9.551 6.512-11.28 6.512z" style="baseline-shift:baseline;display:inline;overflow:visible;vector-effect:none;fill:#85d7bd;fill-opacity:1;stroke-width:.924292;stroke-linejoin:round;stroke-miterlimit:1.7;paint-order:fill markers stroke;enable-background:accumulate;stop-color:#000" transform="matrix(-1.08191 0 0 1.08191 367.106 -41.164)"/><path d="M300.015 87.987c-1.728 0-10.415-5.015-11.28-6.512-.864-1.497-.864-11.528 0-13.025.865-1.497 9.552-6.513 11.28-6.513 1.729 0 10.416 5.016 11.28 6.513.864 1.497.864 11.528 0 13.025-.864 1.497-9.551 6.512-11.28 6.512z" style="baseline-shift:baseline;display:inline;overflow:visible;vector-effect:none;fill:#84d787;fill-opacity:1;stroke-width:.924292;stroke-linejoin:round;stroke-miterlimit:1.7;paint-order:fill markers stroke;enable-background:accumulate;stop-color:#000" transform="matrix(-1.08191 0 0 1.08191 351.968 -67.01)"/><path d="M300.015 87.987c-1.728 0-10.415-5.015-11.28-6.512-.864-1.497-.864-11.528 0-13.025.865-1.497 9.552-6.513 11.28-6.513 1.729 0 10.416 5.016 11.28 6.513.864 1.497.864 11.528 0 13.025-.864 1.497-9.551 6.512-11.28 6.512z" style="baseline-shift:baseline;display:inline;overflow:visible;vector-effect:none;fill:#d7cc84;fill-opacity:1;stroke-width:.924292;stroke-linejoin:round;stroke-miterlimit:1.7;paint-order:fill markers stroke;enable-background:accumulate;stop-color:#000" transform="matrix(-1.08191 0 0 1.08191 337.495 -41.164)"/></svg>