<?xml version="1.0" encoding="UTF-8" standalone="no"?>
<svg
   width="1382.7975"
   height="202.79111"
   viewBox="0 0 365.86525 53.655116"
   version="1.1"
   id="svg4"
   xmlns="http://www.w3.org/2000/svg"
   xmlns:svg="http://www.w3.org/2000/svg">
  <defs
     id="defs4" />
  <path
     d="m 56.990771,28.184015 c 1.869541,0 11.268093,-5.425778 12.203945,-7.045398 0.93477,-1.619619 0.93477,-12.4722582 0,-14.0918775 C 68.258864,5.4271202 58.860312,2.5967e-4 56.990771,2.5967e-4 c -1.870622,0 -11.269174,5.42686053 -12.203944,7.04647983 -0.934771,1.6196193 -0.934771,12.4722585 0,14.0918775 0.93477,1.61962 10.333322,7.045398 12.203944,7.045398 z"
     style="baseline-shift:baseline;display:inline;overflow:visible;vector-effect:none;fill:#d7cc84;fill-opacity:1;stroke-width:1;stroke-linejoin:round;stroke-miterlimit:1.7;paint-order:fill markers stroke;enable-background:accumulate;stop-color:#000000"
     id="path1" />
  <path
     d="m 42.516771,54.030015 c 1.869541,0 11.268093,-5.425778 12.203945,-7.045398 0.93477,-1.619619 0.93477,-12.472258 0,-14.091878 C 53.784864,31.27312 44.386312,25.84626 42.516771,25.84626 c -1.870622,0 -11.269174,5.42686 -12.203944,7.046479 -0.934771,1.61962 -0.934771,12.472259 0,14.091878 0.93477,1.61962 10.333322,7.045398 12.203944,7.045398 z"
     style="baseline-shift:baseline;display:inline;overflow:visible;vector-effect:none;fill:#85d7bd;fill-opacity:1;stroke-width:1;stroke-linejoin:round;stroke-miterlimit:1.7;paint-order:fill markers stroke;enable-background:accumulate;stop-color:#000000"
     id="path2" />
  <path
     d="m 27.378771,28.184015 c 1.869541,0 11.268093,-5.425778 12.203945,-7.045398 0.93477,-1.619619 0.93477,-12.4722582 0,-14.0918775 C 38.646864,5.4271202 29.248312,2.5967e-4 27.378771,2.5967e-4 c -1.870622,0 -11.269174,5.42686053 -12.203944,7.04647983 -0.934771,1.6196193 -0.934771,12.4722585 0,14.0918775 0.93477,1.61962 10.333322,7.045398 12.203944,7.045398 z"
     style="baseline-shift:baseline;display:inline;overflow:visible;vector-effect:none;fill:#84d787;fill-opacity:1;stroke-width:1;stroke-linejoin:round;stroke-miterlimit:1.7;paint-order:fill markers stroke;enable-background:accumulate;stop-color:#000000"
     id="path3" />
  <path
     d="m 12.905771,54.030015 c 1.869541,0 11.268093,-5.425778 12.203945,-7.045398 0.93477,-1.619619 0.93477,-12.472258 0,-14.091878 C 24.173864,31.27312 14.775312,25.84626 12.905771,25.84626 c -1.870622,0 -11.2691742,5.42686 -12.20394445,7.046479 -0.93477024,1.61962 -0.93477024,12.472259 0,14.091878 0.93477025,1.61962 10.33332245,7.045398 12.20394445,7.045398 z"
     style="baseline-shift:baseline;display:inline;overflow:visible;vector-effect:none;fill:#d7cc84;fill-opacity:1;stroke-width:1;stroke-linejoin:round;stroke-miterlimit:1.7;paint-order:fill markers stroke;enable-background:accumulate;stop-color:#000000"
     id="path4" />
  <path
     style="font-weight:300;font-size:96px;line-height:1.25;font-family:Inter;-inkscape-font-specification:'Inter Light';letter-spacing:0px;white-space:pre;display:none;fill:#052b33"
     d="m 336.42738,59.957464 q 0,10.909091 -3.88636,18.988636 -3.85228,8.045455 -10.67046,12.477273 -6.81818,4.397727 -15.64773,4.397727 -8.82954,0 -15.64772,-4.397727 -6.78409,-4.431818 -10.67046,-12.477273 -3.85227,-8.079545 -3.85227,-18.988636 0,-10.909091 3.85227,-18.954546 3.88637,-8.079545 10.70455,-12.477272 6.81818,-4.431818 15.61363,-4.431818 8.82955,0 15.64773,4.431818 6.81818,4.397727 10.67046,12.443182 3.88636,8.045454 3.88636,18.988636 z m -6.20455,0 q 0,-9.409091 -3.13636,-16.090909 -3.13636,-6.681818 -8.55682,-10.227273 -5.42045,-3.545454 -12.30682,-3.545454 -6.85227,0 -12.27272,3.545454 -5.42046,3.545455 -8.59091,10.227273 -3.13637,6.681818 -3.13637,16.090909 0,9.340909 3.10228,16.056818 3.13636,6.681818 8.55681,10.261364 5.45455,3.545454 12.34091,3.545454 6.88637,0 12.30682,-3.545454 5.45455,-3.545455 8.59091,-10.227273 3.13636,-6.715909 3.10227,-16.090909 z m 20.35219,54.545456 V 42.502918 h 5.89773 v 9.988637 h 0.71591 q 1.09091,-2.352273 2.96591,-4.806818 1.90909,-2.488637 5.07954,-4.193182 3.17046,-1.704546 7.97728,-1.704546 6.47727,0 11.31818,3.409091 4.875,3.375 7.56818,9.477273 2.72727,6.068182 2.72727,14.147727 0,8.113637 -2.72727,14.215909 -2.69318,6.102273 -7.56818,9.511364 -4.84091,3.409091 -11.25,3.409091 -4.73864,0 -7.94318,-1.704546 -3.17046,-1.704545 -5.14773,-4.193181 -1.94318,-2.522728 -3,-4.909091 h -0.54545 v 29.352274 z m 6,-45.784092 q 0,6.306818 1.875,11.215909 1.90909,4.909091 5.48864,7.704545 3.57955,2.761364 8.625,2.761364 5.21591,0 8.82955,-2.863637 3.61363,-2.897727 5.48863,-7.806818 1.875,-4.909091 1.875,-11.011363 0,-6.034091 -1.875,-10.875 -1.84091,-4.84091 -5.45454,-7.670455 -3.57955,-2.863636 -8.86364,-2.863636 -5.11364,0 -8.69318,2.761363 -3.57955,2.727273 -5.45455,7.568182 -1.84091,4.806818 -1.84091,11.079546 z m 72.74999,27.238636 q -7.32955,0 -12.68182,-3.409091 -5.35227,-3.443182 -8.28409,-9.511364 -2.89773,-6.102272 -2.89773,-14.045454 0,-7.943182 2.89773,-14.079546 2.93182,-6.136363 8.07954,-9.613636 5.18182,-3.511364 11.96591,-3.511364 5.69318,0 10.73864,2.795455 5.07954,2.761364 8.25,8.454545 3.17045,5.693182 3.17045,14.454546 v 3 h -39 q 0.20455,9.068182 4.97728,14.488636 4.77272,5.420455 12.78409,5.420455 5.59091,0 9.13636,-2.522728 3.54545,-2.556818 5.04545,-6.068181 l 5.76137,1.875 q -1.77273,4.943181 -6.92046,8.625 -5.14772,3.647727 -13.02272,3.647727 z M 411.59773,65.139282 h 32.76137 q 0,-5.045454 -2.04546,-9.068182 -2.01136,-4.056818 -5.625,-6.409091 -3.57954,-2.352272 -8.28409,-2.352272 -4.77273,0 -8.45454,2.420454 -3.64773,2.420455 -5.82955,6.477273 -2.18182,4.056818 -2.52273,8.931818 z m 58.36359,-3 v 32.727273 h -6.06818 V 42.502918 h 5.89773 v 8.21591 h 0.54545 q 1.84091,-4.022728 5.72727,-6.443182 3.92046,-2.454546 9.68182,-2.454546 7.94318,0 12.85227,4.909091 4.90909,4.909091 4.90909,14.215909 v 33.920455 h -6.06818 V 61.3211 q 0,-6.409091 -3.61363,-10.159091 -3.57955,-3.784091 -9.61364,-3.784091 -6.17045,0 -10.22727,3.954546 -4.02273,3.954545 -4.02273,10.806818 z M 585.70001,42.502918 q -0.57955,-5.829545 -5.14773,-9.272727 -4.56818,-3.443182 -11.48864,-3.443182 -7.29545,0 -11.89772,3.681819 -4.56819,3.681818 -4.56819,9.306818 0,3.681818 2.04546,6.170454 2.07954,2.454546 5.28409,4.022728 3.20454,1.568181 6.57954,2.522727 l 7.36364,2.113636 q 3.34091,0.920455 6.68182,2.352273 3.34091,1.431818 6.10227,3.613636 2.79546,2.147728 4.46591,5.284091 1.70455,3.102273 1.70455,7.465909 0,5.590909 -2.89773,10.056818 -2.89773,4.46591 -8.31818,7.09091 -5.42046,2.590909 -12.98864,2.590909 -10.67045,0 -17.04545,-5.181819 -6.375,-5.181818 -6.95455,-13.465909 h 6.54546 q 0.51136,6.204546 5.45454,9.511364 4.94318,3.306818 12,3.306818 5.21591,0 9.27273,-1.738636 4.09091,-1.772727 6.40909,-4.909091 2.35227,-3.170455 2.35227,-7.363636 0,-5.352273 -4.05682,-8.181819 -4.02272,-2.829545 -10.53409,-4.704545 l -8.35227,-2.454546 q -8.21591,-2.420454 -12.75,-6.75 -4.53409,-4.363636 -4.53409,-11.079545 0,-5.625 3,-9.886364 3.03409,-4.295454 8.18182,-6.681818 5.18182,-2.420454 11.625,-2.420454 6.51136,0 11.52272,2.420454 5.01137,2.386364 7.94319,6.545455 2.93181,4.159091 3.17045,9.477272 z m 42.40905,53.454546 q -7.32954,0 -12.68181,-3.409091 -5.35228,-3.443182 -8.28409,-9.511364 -2.89773,-6.102272 -2.89773,-14.045454 0,-7.943182 2.89773,-14.079546 2.93181,-6.136363 8.07954,-9.613636 5.18182,-3.511364 11.96591,-3.511364 5.69318,0 10.73864,2.795455 5.07954,2.761364 8.25,8.454545 3.17045,5.693182 3.17045,14.454546 v 3 h -39 q 0.20455,9.068182 4.97727,14.488636 4.77273,5.420455 12.78409,5.420455 5.59091,0 9.13637,-2.522728 3.54545,-2.556818 5.04545,-6.068181 l 5.76137,1.875 q -1.77273,4.943181 -6.92046,8.625 -5.14773,3.647727 -13.02273,3.647727 z M 610.38179,65.139282 h 32.76137 q 0,-5.045454 -2.04546,-9.068182 -2.01136,-4.056818 -5.625,-6.409091 -3.57954,-2.352272 -8.28409,-2.352272 -4.77273,0 -8.45455,2.420454 -3.64772,2.420455 -5.82954,6.477273 -2.18182,4.056818 -2.52273,8.931818 z m 66.92041,30.920455 q -4.73864,0 -8.65909,-1.840909 -3.92046,-1.875 -6.23864,-5.386364 -2.31818,-3.545455 -2.31818,-8.590909 0,-5.181818 2.55682,-8.215909 2.55681,-3.068182 7.0909,-4.636364 4.56819,-1.568182 10.46591,-2.284091 6.61364,-0.818182 10.15909,-1.465909 3.54546,-0.681818 3.54546,-3.647727 v -1.227273 q 0,-5.386364 -3.20455,-8.454545 -3.17045,-3.068182 -9.13636,-3.068182 -5.65909,0 -9.23864,2.488636 -3.54545,2.488637 -4.97727,5.863637 l -5.76136,-2.079546 q 1.77272,-4.295454 4.90909,-6.852273 3.13636,-2.590909 7.02273,-3.715909 3.88636,-1.159091 7.875,-1.159091 3,0 6.23863,0.784091 3.23864,0.784091 6.03409,2.727273 2.82955,1.909091 4.56818,5.318182 1.73864,3.409091 1.73864,8.693182 v 35.556818 h -6.06818 v -8.284091 h -0.375 q -1.63636,3.477273 -5.65909,6.477273 -4.02273,3 -10.56818,3 z m 0.81818,-5.556819 q 4.84091,0 8.38636,-2.113636 3.54546,-2.147727 5.45455,-5.727273 1.94318,-3.579545 1.94318,-7.875 v -7.568181 q -0.88636,0.852272 -3.34091,1.5 -2.45455,0.613636 -5.35227,1.022727 -2.86364,0.409091 -5.01137,0.681818 -6.64772,0.818182 -10.36363,3.068182 -3.68182,2.25 -3.68182,7.022727 0,4.738636 3.40909,7.363636 3.40909,2.625 8.55682,2.625 z m 37.97729,4.363637 V 42.502918 h 5.89772 v 8.045455 h 0.44319 q 1.60227,-3.954545 5.48863,-6.375 3.88637,-2.454545 8.82955,-2.454545 0.75,0 1.67045,0.03409 0.92046,0.03409 1.53409,0.06818 v 6.170455 q -0.40909,-0.06818 -1.43181,-0.204546 -1.02273,-0.136363 -2.21591,-0.136363 -6.13637,0 -10.15909,3.784091 -3.98864,3.784091 -3.98864,9.613636 v 33.818182 z m 53.04549,1.090909 q -7.02273,0 -12.23864,-3.511364 -5.21591,-3.511363 -8.07955,-9.613636 -2.82954,-6.102273 -2.82954,-13.909091 0,-7.875 2.89773,-14.011364 2.93181,-6.136363 8.11363,-9.613636 5.18182,-3.511364 12.03409,-3.511364 5.25,0 9.51137,2.045455 4.29545,2.045454 7.05681,5.693182 2.76137,3.647727 3.47728,8.522727 h -6.13637 q -0.95454,-4.465909 -4.60227,-7.602273 -3.61364,-3.136363 -9.20454,-3.136363 -5.01137,0 -8.86364,2.727272 -3.85227,2.693182 -6.03409,7.534091 -2.14773,4.806818 -2.14773,11.147728 0,6.375 2.11364,11.28409 2.14772,4.875 5.96591,7.636364 3.85227,2.761364 8.96591,2.761364 5.2159,0 9,-2.897728 3.78409,-2.897727 4.8409,-7.90909 h 6.13637 q -0.68182,4.738636 -3.375,8.454545 -2.65909,3.681818 -6.92046,5.795455 -4.22727,2.113636 -9.68181,2.113636 z m 39.0341,-33.818182 v 32.727273 h -6.06818 V 25.048373 h 6.06818 v 25.670455 h 0.54546 q 1.84091,-4.056819 5.69318,-6.477273 3.88636,-2.420455 9.81818,-2.420455 7.97727,0 12.92046,4.875 4.94318,4.875 4.94318,14.25 v 33.920455 h -6.10228 V 61.3211 q 0,-6.477272 -3.61363,-10.193182 -3.57955,-3.75 -9.68182,-3.75 -6.27273,0 -10.39773,3.954546 -4.125,3.954545 -4.125,10.806818 z m 78.2046,32.727273 V 25.048373 h 40.5 v 5.727273 h -34.125 v 26.284091 h 31.97727 v 5.727272 h -31.97727 v 26.352273 h 34.80682 v 5.727273 z m 76.15912,1.090909 q -7.02272,0 -12.23863,-3.511364 -5.21591,-3.511363 -8.07955,-9.613636 -2.82954,-6.102273 -2.82954,-13.909091 0,-7.875 2.89772,-14.011364 2.93182,-6.136363 8.11364,-9.613636 5.18182,-3.511364 12.03409,-3.511364 5.25,0 9.51136,2.045455 4.29546,2.045454 7.05682,5.693182 2.76137,3.647727 3.47727,8.522727 h -6.13636 q -0.95454,-4.465909 -4.60227,-7.602273 -3.61364,-3.136363 -9.20455,-3.136363 -5.01136,0 -8.86363,2.727272 -3.85228,2.693182 -6.03409,7.534091 -2.14773,4.806818 -2.14773,11.147728 0,6.375 2.11363,11.28409 2.14773,4.875 5.96591,7.636364 3.85228,2.761364 8.96591,2.761364 5.21591,0 9,-2.897728 3.78409,-2.897727 4.84091,-7.90909 h 6.13637 q -0.68182,4.738636 -3.375,8.454545 -2.6591,3.681818 -6.92046,5.795455 -4.22727,2.113636 -9.68182,2.113636 z m 53.31822,0 q -6.7841,0 -12,-3.443182 -5.18184,-3.443182 -8.11366,-9.511364 -2.93181,-6.102272 -2.93181,-14.079545 0,-8.045455 2.93181,-14.147727 2.93182,-6.102273 8.11366,-9.545455 5.2159,-3.443182 12,-3.443182 6.7841,0 11.9659,3.443182 5.2159,3.443182 8.1477,9.545455 2.9318,6.102272 2.9318,14.147727 0,7.977273 -2.9318,14.079545 -2.9318,6.068182 -8.1477,9.511364 -5.1818,3.443182 -11.9659,3.443182 z m 0,-5.556818 q 5.4545,0 9.2045,-2.931818 3.7841,-2.931819 5.7614,-7.806819 1.9773,-4.875 1.9773,-10.738636 0,-5.863636 -1.9773,-10.772727 -1.9773,-4.909091 -5.7614,-7.875 -3.75,-2.965909 -9.2045,-2.965909 -5.4205,0 -9.2046,2.965909 -3.7841,2.965909 -5.7613,7.875 -1.9773,4.909091 -1.9773,10.772727 0,5.863636 1.9773,10.738636 1.9772,4.875 5.7613,7.806819 3.7841,2.931818 9.2046,2.931818 z m 71.5569,-36.409091 -5.5568,1.568182 q -1.2273,-3.545455 -4.0569,-5.965909 -2.8295,-2.454546 -8.1136,-2.454546 -5.2841,0 -8.7273,2.522727 -3.4091,2.522728 -3.4091,6.511364 0,3.409091 2.3182,5.488636 2.3523,2.079546 7.2273,3.306819 l 7.9091,1.943181 q 13.1591,3.238637 13.1591,13.806819 0,4.431818 -2.4546,7.875 -2.4545,3.443181 -6.8522,5.420454 -4.3637,1.943182 -10.125,1.943182 -7.7046,0 -12.6819,-3.443182 -4.9431,-3.477273 -6.3409,-10.022727 l 5.8296,-1.431818 q 2.2159,9.443181 13.0909,9.443181 6.0341,0 9.6477,-2.693181 3.6137,-2.727273 3.6137,-6.818182 0,-6.511364 -8.5228,-8.522727 l -8.5568,-2.045455 q -6.8182,-1.636364 -10.0909,-5.181818 -3.2727,-3.545455 -3.2727,-8.795455 0,-4.329545 2.3522,-7.602272 2.3523,-3.306819 6.4773,-5.181819 4.125,-1.875 9.4091,-1.875 7.1932,0 11.4886,3.272728 4.3296,3.238636 6.2387,8.931818 z m 18.2728,60.511365 q -1.7727,0 -3.375,-0.34091 -1.5682,-0.30682 -2.4886,-0.75 l 1.6363,-5.35227 q 4.6364,1.46591 7.8068,0 3.1705,-1.43182 5.3523,-7.36364 l 1.9091,-5.318182 -19.2614,-52.875 h 6.5796 l 15.5454,44.352273 h 0.4773 l 15.5455,-44.352273 h 6.5795 l -22.1591,60.647732 q -4.1591,11.35227 -14.1477,11.35227 z m 83.3181,-60.511365 -5.5568,1.568182 q -1.2273,-3.545455 -4.0568,-5.965909 -2.8296,-2.454546 -8.1136,-2.454546 -5.2841,0 -8.7273,2.522727 -3.4091,2.522728 -3.4091,6.511364 0,3.409091 2.3182,5.488636 2.3522,2.079546 7.2272,3.306819 l 7.9091,1.943181 q 13.1591,3.238637 13.1591,13.806819 0,4.431818 -2.4545,7.875 -2.4546,3.443181 -6.8523,5.420454 -4.3636,1.943182 -10.125,1.943182 -7.7045,0 -12.6818,-3.443182 -4.9432,-3.477273 -6.3409,-10.022727 l 5.8295,-1.431818 q 2.2159,9.443181 13.0909,9.443181 6.0341,0 9.6478,-2.693181 3.6136,-2.727273 3.6136,-6.818182 0,-6.511364 -8.5227,-8.522727 l -8.5568,-2.045455 q -6.8182,-1.636364 -10.091,-5.181818 -3.2727,-3.545455 -3.2727,-8.795455 0,-4.329545 2.3523,-7.602272 2.3523,-3.306819 6.4773,-5.181819 4.125,-1.875 9.4091,-1.875 7.1931,0 11.4886,3.272728 4.3295,3.238636 6.2386,8.931818 z m 34.6706,-11.488637 v 5.284091 H 1212.598 V 81.1961 q 0,4.943182 2.3864,6.75 2.4204,1.772728 5.5227,1.772728 1.1932,0 2.0455,-0.136364 0.8522,-0.170455 1.5,-0.340909 l 1.2954,5.488636 q -0.8523,0.340909 -2.1818,0.613637 -1.2955,0.306818 -3.2045,0.306818 -3.341,0 -6.4432,-1.465909 -3.1023,-1.465909 -5.0796,-4.363637 -1.9432,-2.897727 -1.9432,-7.193182 V 47.787009 h -7.8068 v -5.284091 h 7.8068 V 29.957464 h 6.1023 v 12.545454 z m 34.3976,53.454546 q -7.3296,0 -12.6818,-3.409091 -5.3523,-3.443182 -8.2841,-9.511364 -2.8977,-6.102272 -2.8977,-14.045454 0,-7.943182 2.8977,-14.079546 2.9318,-6.136363 8.0795,-9.613636 5.1818,-3.511364 11.9659,-3.511364 5.6932,0 10.7387,2.795455 5.0795,2.761364 8.25,8.454545 3.1704,5.693182 3.1704,14.454546 v 3 h -39 q 0.2046,9.068182 4.9773,14.488636 4.7727,5.420455 12.7841,5.420455 5.5909,0 9.1364,-2.522728 3.5454,-2.556818 5.0454,-6.068181 l 5.7614,1.875 q -1.7728,4.943181 -6.9205,8.625 -5.1477,3.647727 -13.0227,3.647727 z m -17.7273,-30.818182 h 32.7614 q 0,-5.045454 -2.0455,-9.068182 -2.0113,-4.056818 -5.625,-6.409091 -3.5795,-2.352272 -8.2841,-2.352272 -4.7727,0 -8.4545,2.420454 -3.6477,2.420455 -5.8296,6.477273 -2.1818,4.056818 -2.5227,8.931818 z m 52.2954,29.727273 V 42.502918 h 5.8977 v 8.045455 h 0.5455 q 1.5682,-4.056818 5.2159,-6.375 3.6818,-2.352273 8.8296,-2.352273 5.4204,0 8.8977,2.522728 3.5113,2.522727 5.25,6.988636 h 0.4432 q 1.7727,-4.363636 5.7613,-6.920455 4.0228,-2.590909 9.75,-2.590909 7.2955,0 11.5228,4.602273 4.2272,4.568182 4.2272,13.363636 v 35.079546 h -6.0682 V 59.787009 q 0,-6.204545 -3.1704,-9.306818 -3.1705,-3.102273 -8.3523,-3.102273 -5.9659,0 -9.2386,3.681819 -3.2387,3.681818 -3.2387,9.340909 v 34.465909 h -6.2045 v -35.625 q 0,-5.318182 -2.9659,-8.590909 -2.9659,-3.272728 -8.3523,-3.272728 -5.4545,0 -9.0682,3.920455 -3.6136,3.920455 -3.6136,10.022727 v 33.545455 z"
     id="text4"
     transform="matrix(0.26458329,0,0,0.26458329,5.2700145,9.2177931)"
     aria-label="Open Search Ecosystem" />
  <path
     style="font-weight:300;font-size:96px;line-height:1.25;font-family:Inter;-inkscape-font-specification:'Inter Light';letter-spacing:0px;white-space:pre;display:inline;fill:#d6cc83"
     d="m 336.42738,59.957464 q 0,10.909091 -3.88636,18.988636 -3.85228,8.045455 -10.67046,12.477273 -6.81818,4.397727 -15.64773,4.397727 -8.82954,0 -15.64772,-4.397727 -6.78409,-4.431818 -10.67046,-12.477273 -3.85227,-8.079545 -3.85227,-18.988636 0,-10.909091 3.85227,-18.954546 3.88637,-8.079545 10.70455,-12.477272 6.81818,-4.431818 15.61363,-4.431818 8.82955,0 15.64773,4.431818 6.81818,4.397727 10.67046,12.443182 3.88636,8.045454 3.88636,18.988636 z m -6.20455,0 q 0,-9.409091 -3.13636,-16.090909 -3.13636,-6.681818 -8.55682,-10.227273 -5.42045,-3.545454 -12.30682,-3.545454 -6.85227,0 -12.27272,3.545454 -5.42046,3.545455 -8.59091,10.227273 -3.13637,6.681818 -3.13637,16.090909 0,9.340909 3.10228,16.056818 3.13636,6.681818 8.55681,10.261364 5.45455,3.545454 12.34091,3.545454 6.88637,0 12.30682,-3.545454 5.45455,-3.545455 8.59091,-10.227273 3.13636,-6.715909 3.10227,-16.090909 z m 20.35219,54.545456 V 42.502918 h 5.89773 v 9.988637 h 0.71591 q 1.09091,-2.352273 2.96591,-4.806818 1.90909,-2.488637 5.07954,-4.193182 3.17046,-1.704546 7.97728,-1.704546 6.47727,0 11.31818,3.409091 4.875,3.375 7.56818,9.477273 2.72727,6.068182 2.72727,14.147727 0,8.113637 -2.72727,14.215909 -2.69318,6.102273 -7.56818,9.511364 -4.84091,3.409091 -11.25,3.409091 -4.73864,0 -7.94318,-1.704546 -3.17046,-1.704545 -5.14773,-4.193181 -1.94318,-2.522728 -3,-4.909091 h -0.54545 v 29.352274 z m 6,-45.784092 q 0,6.306818 1.875,11.215909 1.90909,4.909091 5.48864,7.704545 3.57955,2.761364 8.625,2.761364 5.21591,0 8.82955,-2.863637 3.61363,-2.897727 5.48863,-7.806818 1.875,-4.909091 1.875,-11.011363 0,-6.034091 -1.875,-10.875 -1.84091,-4.84091 -5.45454,-7.670455 -3.57955,-2.863636 -8.86364,-2.863636 -5.11364,0 -8.69318,2.761363 -3.57955,2.727273 -5.45455,7.568182 -1.84091,4.806818 -1.84091,11.079546 z m 72.74999,27.238636 q -7.32955,0 -12.68182,-3.409091 -5.35227,-3.443182 -8.28409,-9.511364 -2.89773,-6.102272 -2.89773,-14.045454 0,-7.943182 2.89773,-14.079546 2.93182,-6.136363 8.07954,-9.613636 5.18182,-3.511364 11.96591,-3.511364 5.69318,0 10.73864,2.795455 5.07954,2.761364 8.25,8.454545 3.17045,5.693182 3.17045,14.454546 v 3 h -39 q 0.20455,9.068182 4.97728,14.488636 4.77272,5.420455 12.78409,5.420455 5.59091,0 9.13636,-2.522728 3.54545,-2.556818 5.04545,-6.068181 l 5.76137,1.875 q -1.77273,4.943181 -6.92046,8.625 -5.14772,3.647727 -13.02272,3.647727 z M 411.59773,65.139282 h 32.76137 q 0,-5.045454 -2.04546,-9.068182 -2.01136,-4.056818 -5.625,-6.409091 -3.57954,-2.352272 -8.28409,-2.352272 -4.77273,0 -8.45454,2.420454 -3.64773,2.420455 -5.82955,6.477273 -2.18182,4.056818 -2.52273,8.931818 z m 58.36359,-3 v 32.727273 h -6.06818 V 42.502918 h 5.89773 v 8.21591 h 0.54545 q 1.84091,-4.022728 5.72727,-6.443182 3.92046,-2.454546 9.68182,-2.454546 7.94318,0 12.85227,4.909091 4.90909,4.909091 4.90909,14.215909 v 33.920455 h -6.06818 V 61.3211 q 0,-6.409091 -3.61363,-10.159091 -3.57955,-3.784091 -9.61364,-3.784091 -6.17045,0 -10.22727,3.954546 -4.02273,3.954545 -4.02273,10.806818 z M 585.70001,42.502918 q -0.57955,-5.829545 -5.14773,-9.272727 -4.56818,-3.443182 -11.48864,-3.443182 -7.29545,0 -11.89772,3.681819 -4.56819,3.681818 -4.56819,9.306818 0,3.681818 2.04546,6.170454 2.07954,2.454546 5.28409,4.022728 3.20454,1.568181 6.57954,2.522727 l 7.36364,2.113636 q 3.34091,0.920455 6.68182,2.352273 3.34091,1.431818 6.10227,3.613636 2.79546,2.147728 4.46591,5.284091 1.70455,3.102273 1.70455,7.465909 0,5.590909 -2.89773,10.056818 -2.89773,4.46591 -8.31818,7.09091 -5.42046,2.590909 -12.98864,2.590909 -10.67045,0 -17.04545,-5.181819 -6.375,-5.181818 -6.95455,-13.465909 h 6.54546 q 0.51136,6.204546 5.45454,9.511364 4.94318,3.306818 12,3.306818 5.21591,0 9.27273,-1.738636 4.09091,-1.772727 6.40909,-4.909091 2.35227,-3.170455 2.35227,-7.363636 0,-5.352273 -4.05682,-8.181819 -4.02272,-2.829545 -10.53409,-4.704545 l -8.35227,-2.454546 q -8.21591,-2.420454 -12.75,-6.75 -4.53409,-4.363636 -4.53409,-11.079545 0,-5.625 3,-9.886364 3.03409,-4.295454 8.18182,-6.681818 5.18182,-2.420454 11.625,-2.420454 6.51136,0 11.52272,2.420454 5.01137,2.386364 7.94319,6.545455 2.93181,4.159091 3.17045,9.477272 z m 42.40905,53.454546 q -7.32954,0 -12.68181,-3.409091 -5.35228,-3.443182 -8.28409,-9.511364 -2.89773,-6.102272 -2.89773,-14.045454 0,-7.943182 2.89773,-14.079546 2.93181,-6.136363 8.07954,-9.613636 5.18182,-3.511364 11.96591,-3.511364 5.69318,0 10.73864,2.795455 5.07954,2.761364 8.25,8.454545 3.17045,5.693182 3.17045,14.454546 v 3 h -39 q 0.20455,9.068182 4.97727,14.488636 4.77273,5.420455 12.78409,5.420455 5.59091,0 9.13637,-2.522728 3.54545,-2.556818 5.04545,-6.068181 l 5.76137,1.875 q -1.77273,4.943181 -6.92046,8.625 -5.14773,3.647727 -13.02273,3.647727 z M 610.38179,65.139282 h 32.76137 q 0,-5.045454 -2.04546,-9.068182 -2.01136,-4.056818 -5.625,-6.409091 -3.57954,-2.352272 -8.28409,-2.352272 -4.77273,0 -8.45455,2.420454 -3.64772,2.420455 -5.82954,6.477273 -2.18182,4.056818 -2.52273,8.931818 z m 66.92041,30.920455 q -4.73864,0 -8.65909,-1.840909 -3.92046,-1.875 -6.23864,-5.386364 -2.31818,-3.545455 -2.31818,-8.590909 0,-5.181818 2.55682,-8.215909 2.55681,-3.068182 7.0909,-4.636364 4.56819,-1.568182 10.46591,-2.284091 6.61364,-0.818182 10.15909,-1.465909 3.54546,-0.681818 3.54546,-3.647727 v -1.227273 q 0,-5.386364 -3.20455,-8.454545 -3.17045,-3.068182 -9.13636,-3.068182 -5.65909,0 -9.23864,2.488636 -3.54545,2.488637 -4.97727,5.863637 l -5.76136,-2.079546 q 1.77272,-4.295454 4.90909,-6.852273 3.13636,-2.590909 7.02273,-3.715909 3.88636,-1.159091 7.875,-1.159091 3,0 6.23863,0.784091 3.23864,0.784091 6.03409,2.727273 2.82955,1.909091 4.56818,5.318182 1.73864,3.409091 1.73864,8.693182 v 35.556818 h -6.06818 v -8.284091 h -0.375 q -1.63636,3.477273 -5.65909,6.477273 -4.02273,3 -10.56818,3 z m 0.81818,-5.556819 q 4.84091,0 8.38636,-2.113636 3.54546,-2.147727 5.45455,-5.727273 1.94318,-3.579545 1.94318,-7.875 v -7.568181 q -0.88636,0.852272 -3.34091,1.5 -2.45455,0.613636 -5.35227,1.022727 -2.86364,0.409091 -5.01137,0.681818 -6.64772,0.818182 -10.36363,3.068182 -3.68182,2.25 -3.68182,7.022727 0,4.738636 3.40909,7.363636 3.40909,2.625 8.55682,2.625 z m 37.97729,4.363637 V 42.502918 h 5.89772 v 8.045455 h 0.44319 q 1.60227,-3.954545 5.48863,-6.375 3.88637,-2.454545 8.82955,-2.454545 0.75,0 1.67045,0.03409 0.92046,0.03409 1.53409,0.06818 v 6.170455 q -0.40909,-0.06818 -1.43181,-0.204546 -1.02273,-0.136363 -2.21591,-0.136363 -6.13637,0 -10.15909,3.784091 -3.98864,3.784091 -3.98864,9.613636 v 33.818182 z m 53.04549,1.090909 q -7.02273,0 -12.23864,-3.511364 -5.21591,-3.511363 -8.07955,-9.613636 -2.82954,-6.102273 -2.82954,-13.909091 0,-7.875 2.89773,-14.011364 2.93181,-6.136363 8.11363,-9.613636 5.18182,-3.511364 12.03409,-3.511364 5.25,0 9.51137,2.045455 4.29545,2.045454 7.05681,5.693182 2.76137,3.647727 3.47728,8.522727 h -6.13637 q -0.95454,-4.465909 -4.60227,-7.602273 -3.61364,-3.136363 -9.20454,-3.136363 -5.01137,0 -8.86364,2.727272 -3.85227,2.693182 -6.03409,7.534091 -2.14773,4.806818 -2.14773,11.147728 0,6.375 2.11364,11.28409 2.14772,4.875 5.96591,7.636364 3.85227,2.761364 8.96591,2.761364 5.2159,0 9,-2.897728 3.78409,-2.897727 4.8409,-7.90909 h 6.13637 q -0.68182,4.738636 -3.375,8.454545 -2.65909,3.681818 -6.92046,5.795455 -4.22727,2.113636 -9.68181,2.113636 z m 39.0341,-33.818182 v 32.727273 h -6.06818 V 25.048373 h 6.06818 v 25.670455 h 0.54546 q 1.84091,-4.056819 5.69318,-6.477273 3.88636,-2.420455 9.81818,-2.420455 7.97727,0 12.92046,4.875 4.94318,4.875 4.94318,14.25 v 33.920455 h -6.10228 V 61.3211 q 0,-6.477272 -3.61363,-10.193182 -3.57955,-3.75 -9.68182,-3.75 -6.27273,0 -10.39773,3.954546 -4.125,3.954545 -4.125,10.806818 z m 78.2046,32.727273 V 25.048373 h 40.5 v 5.727273 h -34.125 v 26.284091 h 31.97727 v 5.727272 h -31.97727 v 26.352273 h 34.80682 v 5.727273 z m 76.15912,1.090909 q -7.02272,0 -12.23863,-3.511364 -5.21591,-3.511363 -8.07955,-9.613636 -2.82954,-6.102273 -2.82954,-13.909091 0,-7.875 2.89772,-14.011364 2.93182,-6.136363 8.11364,-9.613636 5.18182,-3.511364 12.03409,-3.511364 5.25,0 9.51136,2.045455 4.29546,2.045454 7.05682,5.693182 2.76137,3.647727 3.47727,8.522727 h -6.13636 q -0.95454,-4.465909 -4.60227,-7.602273 -3.61364,-3.136363 -9.20455,-3.136363 -5.01136,0 -8.86363,2.727272 -3.85228,2.693182 -6.03409,7.534091 -2.14773,4.806818 -2.14773,11.147728 0,6.375 2.11363,11.28409 2.14773,4.875 5.96591,7.636364 3.85228,2.761364 8.96591,2.761364 5.21591,0 9,-2.897728 3.78409,-2.897727 4.84091,-7.90909 h 6.13637 q -0.68182,4.738636 -3.375,8.454545 -2.6591,3.681818 -6.92046,5.795455 -4.22727,2.113636 -9.68182,2.113636 z m 53.31822,0 q -6.7841,0 -12,-3.443182 -5.18184,-3.443182 -8.11366,-9.511364 -2.93181,-6.102272 -2.93181,-14.079545 0,-8.045455 2.93181,-14.147727 2.93182,-6.102273 8.11366,-9.545455 5.2159,-3.443182 12,-3.443182 6.7841,0 11.9659,3.443182 5.2159,3.443182 8.1477,9.545455 2.9318,6.102272 2.9318,14.147727 0,7.977273 -2.9318,14.079545 -2.9318,6.068182 -8.1477,9.511364 -5.1818,3.443182 -11.9659,3.443182 z m 0,-5.556818 q 5.4545,0 9.2045,-2.931818 3.7841,-2.931819 5.7614,-7.806819 1.9773,-4.875 1.9773,-10.738636 0,-5.863636 -1.9773,-10.772727 -1.9773,-4.909091 -5.7614,-7.875 -3.75,-2.965909 -9.2045,-2.965909 -5.4205,0 -9.2046,2.965909 -3.7841,2.965909 -5.7613,7.875 -1.9773,4.909091 -1.9773,10.772727 0,5.863636 1.9773,10.738636 1.9772,4.875 5.7613,7.806819 3.7841,2.931818 9.2046,2.931818 z m 71.5569,-36.409091 -5.5568,1.568182 q -1.2273,-3.545455 -4.0569,-5.965909 -2.8295,-2.454546 -8.1136,-2.454546 -5.2841,0 -8.7273,2.522727 -3.4091,2.522728 -3.4091,6.511364 0,3.409091 2.3182,5.488636 2.3523,2.079546 7.2273,3.306819 l 7.9091,1.943181 q 13.1591,3.238637 13.1591,13.806819 0,4.431818 -2.4546,7.875 -2.4545,3.443181 -6.8522,5.420454 -4.3637,1.943182 -10.125,1.943182 -7.7046,0 -12.6819,-3.443182 -4.9431,-3.477273 -6.3409,-10.022727 l 5.8296,-1.431818 q 2.2159,9.443181 13.0909,9.443181 6.0341,0 9.6477,-2.693181 3.6137,-2.727273 3.6137,-6.818182 0,-6.511364 -8.5228,-8.522727 l -8.5568,-2.045455 q -6.8182,-1.636364 -10.0909,-5.181818 -3.2727,-3.545455 -3.2727,-8.795455 0,-4.329545 2.3522,-7.602272 2.3523,-3.306819 6.4773,-5.181819 4.125,-1.875 9.4091,-1.875 7.1932,0 11.4886,3.272728 4.3296,3.238636 6.2387,8.931818 z m 18.2728,60.511365 q -1.7727,0 -3.375,-0.34091 -1.5682,-0.30682 -2.4886,-0.75 l 1.6363,-5.35227 q 4.6364,1.46591 7.8068,0 3.1705,-1.43182 5.3523,-7.36364 l 1.9091,-5.318182 -19.2614,-52.875 h 6.5796 l 15.5454,44.352273 h 0.4773 l 15.5455,-44.352273 h 6.5795 l -22.1591,60.647732 q -4.1591,11.35227 -14.1477,11.35227 z m 83.3181,-60.511365 -5.5568,1.568182 q -1.2273,-3.545455 -4.0568,-5.965909 -2.8296,-2.454546 -8.1136,-2.454546 -5.2841,0 -8.7273,2.522727 -3.4091,2.522728 -3.4091,6.511364 0,3.409091 2.3182,5.488636 2.3522,2.079546 7.2272,3.306819 l 7.9091,1.943181 q 13.1591,3.238637 13.1591,13.806819 0,4.431818 -2.4545,7.875 -2.4546,3.443181 -6.8523,5.420454 -4.3636,1.943182 -10.125,1.943182 -7.7045,0 -12.6818,-3.443182 -4.9432,-3.477273 -6.3409,-10.022727 l 5.8295,-1.431818 q 2.2159,9.443181 13.0909,9.443181 6.0341,0 9.6478,-2.693181 3.6136,-2.727273 3.6136,-6.818182 0,-6.511364 -8.5227,-8.522727 l -8.5568,-2.045455 q -6.8182,-1.636364 -10.091,-5.181818 -3.2727,-3.545455 -3.2727,-8.795455 0,-4.329545 2.3523,-7.602272 2.3523,-3.306819 6.4773,-5.181819 4.125,-1.875 9.4091,-1.875 7.1931,0 11.4886,3.272728 4.3295,3.238636 6.2386,8.931818 z m 34.6706,-11.488637 v 5.284091 H 1212.598 V 81.1961 q 0,4.943182 2.3864,6.75 2.4204,1.772728 5.5227,1.772728 1.1932,0 2.0455,-0.136364 0.8522,-0.170455 1.5,-0.340909 l 1.2954,5.488636 q -0.8523,0.340909 -2.1818,0.613637 -1.2955,0.306818 -3.2045,0.306818 -3.341,0 -6.4432,-1.465909 -3.1023,-1.465909 -5.0796,-4.363637 -1.9432,-2.897727 -1.9432,-7.193182 V 47.787009 h -7.8068 v -5.284091 h 7.8068 V 29.957464 h 6.1023 v 12.545454 z m 34.3976,53.454546 q -7.3296,0 -12.6818,-3.409091 -5.3523,-3.443182 -8.2841,-9.511364 -2.8977,-6.102272 -2.8977,-14.045454 0,-7.943182 2.8977,-14.079546 2.9318,-6.136363 8.0795,-9.613636 5.1818,-3.511364 11.9659,-3.511364 5.6932,0 10.7387,2.795455 5.0795,2.761364 8.25,8.454545 3.1704,5.693182 3.1704,14.454546 v 3 h -39 q 0.2046,9.068182 4.9773,14.488636 4.7727,5.420455 12.7841,5.420455 5.5909,0 9.1364,-2.522728 3.5454,-2.556818 5.0454,-6.068181 l 5.7614,1.875 q -1.7728,4.943181 -6.9205,8.625 -5.1477,3.647727 -13.0227,3.647727 z m -17.7273,-30.818182 h 32.7614 q 0,-5.045454 -2.0455,-9.068182 -2.0113,-4.056818 -5.625,-6.409091 -3.5795,-2.352272 -8.2841,-2.352272 -4.7727,0 -8.4545,2.420454 -3.6477,2.420455 -5.8296,6.477273 -2.1818,4.056818 -2.5227,8.931818 z m 52.2954,29.727273 V 42.502918 h 5.8977 v 8.045455 h 0.5455 q 1.5682,-4.056818 5.2159,-6.375 3.6818,-2.352273 8.8296,-2.352273 5.4204,0 8.8977,2.522728 3.5113,2.522727 5.25,6.988636 h 0.4432 q 1.7727,-4.363636 5.7613,-6.920455 4.0228,-2.590909 9.75,-2.590909 7.2955,0 11.5228,4.602273 4.2272,4.568182 4.2272,13.363636 v 35.079546 h -6.0682 V 59.787009 q 0,-6.204545 -3.1704,-9.306818 -3.1705,-3.102273 -8.3523,-3.102273 -5.9659,0 -9.2386,3.681819 -3.2387,3.681818 -3.2387,9.340909 v 34.465909 h -6.2045 v -35.625 q 0,-5.318182 -2.9659,-8.590909 -2.9659,-3.272728 -8.3523,-3.272728 -5.4545,0 -9.0682,3.920455 -3.6136,3.920455 -3.6136,10.022727 v 33.545455 z"
     id="text2"
     transform="matrix(0.26458329,0,0,0.26458329,5.2700145,9.2177931)"
     aria-label="Open Search Ecosystem" />
</svg>
